<?xml version="1.0" encoding="UTF-8"?>
<svg width="714px" height="1492px" viewBox="0 0 714 1492" version="1.1" xmlns="http://www.w3.org/2000/svg" xmlns:xlink="http://www.w3.org/1999/xlink">
    <title>OnePlus 6T by Daniel Hannih</title>
    <defs>
        <linearGradient x1="50%" y1="0%" x2="50%" y2="100%" id="linearGradient-1">
            <stop stop-color="#000000" offset="0%"></stop>
            <stop stop-color="#272727" offset="100%"></stop>
        </linearGradient>
        <linearGradient x1="50%" y1="0%" x2="50%" y2="100%" id="linearGradient-2">
            <stop stop-color="#181818" offset="0%"></stop>
            <stop stop-color="#060606" offset="100%"></stop>
        </linearGradient>
        <radialGradient cx="43.3496456%" cy="23.705203%" fx="43.3496456%" fy="23.705203%" r="42.6294554%" id="radialGradient-3">
            <stop stop-color="#AFAFAF" offset="0%"></stop>
            <stop stop-color="#000000" offset="100%"></stop>
        </radialGradient>
        <linearGradient x1="50%" y1="39.2892262%" x2="74.1013741%" y2="88.9511694%" id="linearGradient-4">
            <stop stop-color="#3D443D" stop-opacity="0" offset="0.0659839527%"></stop>
            <stop stop-color="#3D443D" offset="41.480152%"></stop>
            <stop stop-color="#607160" offset="100%"></stop>
        </linearGradient>
        <radialGradient cx="50%" cy="50%" fx="50%" fy="50%" r="36.0661661%" id="radialGradient-5">
            <stop stop-color="#000000" offset="0%"></stop>
            <stop stop-color="#000000" stop-opacity="0" offset="100%"></stop>
        </radialGradient>
        <circle id="path-6" cx="357" cy="48" r="9"></circle>
        <filter x="-52.8%" y="-52.8%" width="205.6%" height="205.6%" filterUnits="objectBoundingBox" id="filter-7">
            <feMorphology radius="2" operator="erode" in="SourceAlpha" result="shadowSpreadInner1"></feMorphology>
            <feGaussianBlur stdDeviation="1" in="shadowSpreadInner1" result="shadowBlurInner1"></feGaussianBlur>
            <feOffset dx="0" dy="-1" in="shadowBlurInner1" result="shadowOffsetInner1"></feOffset>
            <feComposite in="shadowOffsetInner1" in2="SourceAlpha" operator="arithmetic" k2="-1" k3="1" result="shadowInnerInner1"></feComposite>
            <feColorMatrix values="0 0 0 0 0   0 0 0 0 0   0 0 0 0 0  0 0 0 1 0" type="matrix" in="shadowInnerInner1"></feColorMatrix>
        </filter>
    </defs>
    <g id="one-plus" stroke="none" stroke-width="1" fill="none" fill-rule="evenodd">
        <path d="M-0.435340742,438.974136 L2.88582797,437.645669 C4.42417852,437.030329 6.17008985,437.778576 6.78543007,439.316927 C6.9271744,439.671288 7,440.049441 7,440.431099 L7,623.340588 C7,624.997443 5.65685425,626.340588 4,626.340588 C3.80244404,626.340588 3.60537115,626.321074 3.41165159,626.28233 L0.181745545,625.636349 C-0.984257837,625.403148 -1.38802109,625.218021 -1.78888417,624.931274 C-2.18974726,624.644527 -2.49252621,624.275196 -2.6950894,623.825881 C-2.89765258,623.376567 -3,622.944338 -3,621.755243 L-3,442.762223 C-3,441.70597 -2.92630112,441.324069 -2.77244035,440.917177 C-2.61857958,440.510284 -2.38455692,440.164625 -2.06390937,439.870653 C-1.74326182,439.576681 -1.41604703,439.366419 -0.435340742,438.974136 Z" id="Rectangle" fill="#3E3E3E"></path>
        <path d="M713.435341,329.291384 L710.114172,330.619852 C708.575821,331.235192 706.82991,330.486944 706.21457,328.948594 C706.072826,328.594233 706,328.21608 706,327.834422 L706,250 C706,248.343146 707.343146,247 709,247 C709.197556,247 709.394629,247.019514 709.588348,247.058258 L712.818254,247.704239 C713.984258,247.93744 714.388021,248.122567 714.788884,248.409314 C715.189747,248.696061 715.492526,249.065392 715.695089,249.514707 C715.897653,249.964021 716,250.39625 716,251.585345 L716,325.503298 C716,326.559551 715.926301,326.941452 715.77244,327.348344 C715.61858,327.755236 715.384557,328.100895 715.063909,328.394867 C714.743262,328.68884 714.416047,328.899102 713.435341,329.291384 Z" id="Rectangle" fill="#3E3E3E"></path>
        <path d="M712.435341,624.326709 L709.114172,625.655176 C707.575821,626.270517 705.82991,625.522269 705.21457,623.983918 C705.072826,623.629558 705,623.251405 705,622.869746 L705,512 C705,510.343146 706.343146,509 708,509 C708.197556,509 708.394629,509.019514 708.588348,509.058258 L711.818254,509.704239 C712.984258,509.93744 713.388021,510.122567 713.788884,510.409314 C714.189747,510.696061 714.492526,511.065392 714.695089,511.514707 C714.897653,511.964021 715,512.39625 715,513.585345 L715,620.538623 C715,621.594876 714.926301,621.976776 714.77244,622.383669 C714.61858,622.790561 714.384557,623.13622 714.063909,623.430192 C713.743262,623.724164 713.416047,623.934426 712.435341,624.326709 Z" id="Rectangle" fill="#3E3E3E"></path>
        <path d="M712,120.938719 L712,1371.06128 C712,1412.07114 709.730022,1428.94231 701.711896,1443.9349 C693.693769,1458.92749 681.927495,1469.69377 666.934902,1477.7119 C651.94231,1485.73002 632.430611,1489.14966 591.939616,1491.14966 C583.931144,1491.54523 573.63193,1491.81759 561.523297,1492 L152.476703,1492 C140.36807,1491.81759 130.068856,1491.54523 122.060384,1491.14966 C81.5693886,1489.14966 62.0576902,1485.73002 47.0650976,1477.7119 C32.072505,1469.69377 20.3062306,1458.92749 12.2881044,1443.9349 C4.26997811,1428.94231 2,1412.07114 2,1371.06128 L2,120.938719 C2,79.9288572 4.26997811,63.0576902 12.2881044,48.0650976 C20.3062306,33.072505 32.072505,22.3062306 47.0650976,14.2881044 C62.0576902,6.26997811 81.5693886,2.85033769 122.060384,0.850337693 C130.068856,0.454769659 140.36807,0.182411744 152.476703,9.09494702e-13 L561.523297,0 C573.63193,0.182411744 583.931144,0.454769659 591.939616,0.850337693 C632.430611,2.85033769 651.94231,6.26997811 666.934902,14.2881044 C681.927495,22.3062306 693.693769,33.072505 701.711896,48.0650976 C709.730022,63.0576902 712,79.9288572 712,120.938719 Z" id="base" fill="url(#linearGradient-1)"></path>
        <path d="M118.58181,14 L591.41819,14 C623.958624,14 645.758572,17.3881348 657.654868,23.7503437 C669.551164,30.1125526 678.887447,39.4488355 685.249656,51.3451318 C691.611865,63.2414281 695,75.0413758 695,107.58181 L695,1384.41819 C695,1416.95862 691.611865,1428.75857 685.249656,1440.65487 C678.887447,1452.55116 669.551164,1461.88745 657.654868,1468.24966 C645.758572,1474.61187 623.958624,1478 591.41819,1478 L118.58181,1478 C86.0413758,1478 64.2414281,1474.61187 52.3451318,1468.24966 C40.4488355,1461.88745 31.1125526,1452.55116 24.7503437,1440.65487 C18.3881348,1428.75857 15,1416.95862 15,1384.41819 L15,107.58181 C15,75.0413758 18.3881348,63.2414281 24.7503437,51.3451318 C31.1125526,39.4488355 40.4488355,30.1125526 52.3451318,23.7503437 C64.2414281,17.3881348 86.0413758,14 118.58181,14 Z" id="Rectangle" fill="url(#linearGradient-2)"></path>
        <path d="M262.774131,33 C325.260077,33 313.703424,78.9136082 357,78.9136082 C400.296576,78.9136082 388.739923,33.0000001 451.225869,33 L598.391788,33 C627.811907,33 638.480353,36.0632452 649.235908,41.8153792 C659.991464,47.5675133 668.432487,56.0085362 674.184621,66.7640918 C679.936755,77.5196473 683,88.1880932 683,117.608212 L683,1353.39179 C683,1382.81191 679.936755,1393.48035 674.184621,1404.23591 C668.432487,1414.99146 659.991464,1423.43249 649.235908,1429.18462 C638.480353,1434.93675 627.811907,1438 598.391788,1438 L115.608212,1438 C86.1880932,1438 75.5196473,1434.93675 64.7640918,1429.18462 C54.0085362,1423.43249 45.5675133,1414.99146 39.8153792,1404.23591 C34.0632452,1393.48035 31,1382.81191 31,1353.39179 L31,117.608212 C31,88.1880932 34.0632452,77.5196473 39.8153792,66.7640918 C45.5675133,56.0085362 54.0085362,47.5675133 64.7640918,41.8153792 C75.5196473,36.0632452 86.1880932,33 115.608212,33 L262.774088,33 L262.774131,33 Z" id="Display" fill="#3B3B3B"></path>
        <path d="M280.965856,9 L429.034144,9 C430.334031,9 431.387797,10.0537664 431.387797,11.3536531 C431.387797,12.2798404 430.84461,13.1199255 430,13.5 L421.9573,17.1192151 C420.667125,17.6997938 419.26844,18 417.853653,18 L292.146347,18 C290.73156,18 289.332875,17.6997938 288.0427,17.1192151 L280,13.5 C278.814605,12.9665724 278.286082,11.5731917 278.819509,10.387797 C279.199584,9.54318692 280.039669,9 280.965856,9 Z" id="Rectangle" fill="#000000"></path>
        <g id="Oval">
            <use fill="url(#radialGradient-3)" fill-rule="evenodd" xlink:href="#path-6"></use>
            <use fill="url(#linearGradient-4)" fill-rule="evenodd" xlink:href="#path-6"></use>
            <use fill="url(#radialGradient-5)" fill-rule="evenodd" xlink:href="#path-6"></use>
            <use fill="black" fill-opacity="1" filter="url(#filter-7)" xlink:href="#path-6"></use>
            <circle stroke-opacity="0.174770542" stroke="#505050" stroke-width="7" cx="357" cy="48" r="12.5"></circle>
        </g>
    </g>
</svg>
