<?xml version="1.0" encoding="UTF-8"?>
<svg width="1120px" height="945px" viewBox="0 0 1120 945" version="1.1" xmlns="http://www.w3.org/2000/svg" xmlns:xlink="http://www.w3.org/1999/xlink">
    <!-- Generator: Sketch 53.2 (72643) - https://sketchapp.com -->
    <title>Apple TV</title>
    <desc>Created with Sketch.</desc>
    <defs>
        <linearGradient x1="50%" y1="0%" x2="50%" y2="100%" id="linearGradient-1">
            <stop stop-color="#283038" offset="0%"></stop>
            <stop stop-color="#13181D" offset="100%"></stop>
        </linearGradient>
        <path d="M251.904148,310.516433 C250.10875,314.708899 247.983585,318.568041 245.521325,322.116082 C242.16503,326.952973 239.416972,330.30102 237.299135,332.160223 C234.016122,335.211983 230.498608,336.774899 226.731936,336.863785 C224.027847,336.863785 220.766818,336.08603 216.970834,334.5083 C213.162392,332.937977 209.662465,332.160223 206.46226,332.160223 C203.105965,332.160223 199.506375,332.937977 195.656163,334.5083 C191.800088,336.08603 188.693683,336.908228 186.318628,336.989707 C182.706581,337.145258 179.106258,335.537899 175.512531,332.160223 C173.218819,330.138062 170.349846,326.6715 166.912942,321.760537 C163.225414,316.516252 160.193756,310.434954 157.818701,303.50183 C155.275099,296.013168 154,288.761535 154,281.741006 C154,273.699027 155.719185,266.76294 159.162685,260.950524 C161.868973,256.281776 165.469295,252.598924 169.975377,249.895302 C174.48146,247.19168 179.350286,245.813944 184.593581,245.725798 C187.462553,245.725798 191.224828,246.622808 195.900191,248.385718 C200.562363,250.154554 203.555914,251.051563 204.868386,251.051563 C205.849626,251.051563 209.175143,250.002706 214.812692,247.911658 C220.143925,245.972458 224.643412,245.169519 228.329474,245.485806 C238.317749,246.300596 245.821779,250.280476 250.812253,257.450629 C241.879232,262.921575 237.460355,270.584306 237.548293,280.41438 C237.628902,288.071185 240.37696,294.442845 245.77781,299.501951 C248.225414,301.850028 250.958816,303.664788 254,304.953638 C253.340466,306.886913 252.644291,308.738709 251.904148,310.516433 L251.904148,310.516433 Z M228.996336,219.400668 C228.996336,225.402042 226.827202,231.005503 222.503591,236.192013 C217.285945,242.357752 210.974938,245.920607 204.131174,245.358402 C204.043969,244.638424 203.993405,243.880669 203.993405,243.084397 C203.993405,237.323089 206.474718,231.15735 210.881137,226.116021 C213.081049,223.563505 215.878939,221.441125 219.271875,219.748065 C222.657482,218.080264 225.859886,217.157921 228.871757,217 C228.959695,217.802272 228.996336,218.604618 228.996336,219.400594 L228.996336,219.400668 Z" id="path-2"></path>
        <filter x="-2.0%" y="-0.8%" width="104.0%" height="103.3%" filterUnits="objectBoundingBox" id="filter-3">
            <feOffset dx="0" dy="1" in="SourceAlpha" result="shadowOffsetOuter1"></feOffset>
            <feGaussianBlur stdDeviation="0.5" in="shadowOffsetOuter1" result="shadowBlurOuter1"></feGaussianBlur>
            <feColorMatrix values="0 0 0 0 1   0 0 0 0 1   0 0 0 0 1  0 0 0 0.107708698 0" type="matrix" in="shadowBlurOuter1"></feColorMatrix>
        </filter>
        <path d="M285.964844,224.195312 L304.613281,224.195312 L304.613281,245.59375 L321.800781,245.59375 L321.800781,260.289062 L304.613281,260.289062 L304.613281,310.132812 C304.613281,317.953125 308.050781,321.476562 315.613281,321.476562 C317.503906,321.476562 320.511719,321.304688 321.714844,321.046875 L321.714844,335.742188 C319.652344,336.257812 315.527344,336.601562 311.402344,336.601562 C293.097656,336.601562 285.964844,329.640625 285.964844,312.195312 L285.964844,260.289062 L272.816406,260.289062 L272.816406,245.59375 L285.964844,245.59375 L285.964844,224.195312 Z M417.183594,245.59375 L384.785156,336 L364.847656,336 L332.277344,245.59375 L352.042969,245.59375 L374.730469,317.867188 L375.074219,317.867188 L397.761719,245.59375 L417.183594,245.59375 Z" id="path-4"></path>
        <filter x="-1.4%" y="-0.9%" width="102.8%" height="103.6%" filterUnits="objectBoundingBox" id="filter-5">
            <feOffset dx="0" dy="1" in="SourceAlpha" result="shadowOffsetOuter1"></feOffset>
            <feGaussianBlur stdDeviation="0.5" in="shadowOffsetOuter1" result="shadowBlurOuter1"></feGaussianBlur>
            <feColorMatrix values="0 0 0 0 1   0 0 0 0 1   0 0 0 0 1  0 0 0 0.107708698 0" type="matrix" in="shadowBlurOuter1"></feColorMatrix>
        </filter>
        <linearGradient x1="50%" y1="0%" x2="50%" y2="100%" id="linearGradient-6">
            <stop stop-color="#171A23" offset="0%"></stop>
            <stop stop-color="#0B0F16" offset="100%"></stop>
        </linearGradient>
        <linearGradient x1="50%" y1="0%" x2="50%" y2="100%" id="linearGradient-7">
            <stop stop-color="#222830" offset="0%"></stop>
            <stop stop-color="#1F242C" offset="100%"></stop>
        </linearGradient>
        <linearGradient x1="50%" y1="0%" x2="50%" y2="100%" id="linearGradient-8">
            <stop stop-color="#151A22" offset="0%"></stop>
            <stop stop-color="#11161B" offset="100%"></stop>
        </linearGradient>
        <path d="M34.5,0 C53.5538239,0 69,17.4461761 69,36.5 L69,133.5 C69,152.553824 53.5538239,170 34.5,170 C15.4461761,170 0,152.553824 0,133.5 L0,36.5 C0,17.4461761 15.4461761,0 34.5,0 Z" id="path-9"></path>
        <filter x="-4.3%" y="-1.8%" width="108.7%" height="103.5%" filterUnits="objectBoundingBox" id="filter-10">
            <feGaussianBlur stdDeviation="0.5" in="SourceAlpha" result="shadowBlurInner1"></feGaussianBlur>
            <feOffset dx="0.5" dy="1" in="shadowBlurInner1" result="shadowOffsetInner1"></feOffset>
            <feComposite in="shadowOffsetInner1" in2="SourceAlpha" operator="arithmetic" k2="-1" k3="1" result="shadowInnerInner1"></feComposite>
            <feColorMatrix values="0 0 0 0 1   0 0 0 0 1   0 0 0 0 1  0 0 0 0.359894012 0" type="matrix" in="shadowInnerInner1"></feColorMatrix>
        </filter>
        <linearGradient x1="50%" y1="0%" x2="50%" y2="100%" id="linearGradient-11">
            <stop stop-color="#151A22" offset="0%"></stop>
            <stop stop-color="#11161B" offset="100%"></stop>
        </linearGradient>
        <circle id="path-12" cx="38" cy="38" r="38"></circle>
        <filter x="-3.9%" y="-3.9%" width="107.9%" height="107.9%" filterUnits="objectBoundingBox" id="filter-13">
            <feGaussianBlur stdDeviation="0.5" in="SourceAlpha" result="shadowBlurInner1"></feGaussianBlur>
            <feOffset dx="0.5" dy="1" in="shadowBlurInner1" result="shadowOffsetInner1"></feOffset>
            <feComposite in="shadowOffsetInner1" in2="SourceAlpha" operator="arithmetic" k2="-1" k3="1" result="shadowInnerInner1"></feComposite>
            <feColorMatrix values="0 0 0 0 1   0 0 0 0 1   0 0 0 0 1  0 0 0 0.359894012 0" type="matrix" in="shadowInnerInner1"></feColorMatrix>
        </filter>
        <linearGradient x1="50%" y1="0%" x2="50%" y2="100%" id="linearGradient-14">
            <stop stop-color="#0F1419" offset="0%"></stop>
            <stop stop-color="#2A2F38" offset="100%"></stop>
        </linearGradient>
        <circle id="path-15" cx="38" cy="38" r="38"></circle>
        <filter x="-5.3%" y="-5.3%" width="110.5%" height="110.5%" filterUnits="objectBoundingBox" id="filter-16">
            <feGaussianBlur stdDeviation="1" in="SourceAlpha" result="shadowBlurInner1"></feGaussianBlur>
            <feOffset dx="0" dy="-2" in="shadowBlurInner1" result="shadowOffsetInner1"></feOffset>
            <feComposite in="shadowOffsetInner1" in2="SourceAlpha" operator="arithmetic" k2="-1" k3="1" result="shadowInnerInner1"></feComposite>
            <feColorMatrix values="0 0 0 0 0   0 0 0 0 0   0 0 0 0 0  0 0 0 0.5 0" type="matrix" in="shadowInnerInner1" result="shadowMatrixInner1"></feColorMatrix>
            <feGaussianBlur stdDeviation="0.5" in="SourceAlpha" result="shadowBlurInner2"></feGaussianBlur>
            <feOffset dx="0.5" dy="1" in="shadowBlurInner2" result="shadowOffsetInner2"></feOffset>
            <feComposite in="shadowOffsetInner2" in2="SourceAlpha" operator="arithmetic" k2="-1" k3="1" result="shadowInnerInner2"></feComposite>
            <feColorMatrix values="0 0 0 0 1   0 0 0 0 1   0 0 0 0 1  0 0 0 0.359894012 0" type="matrix" in="shadowInnerInner2" result="shadowMatrixInner2"></feColorMatrix>
            <feMerge>
                <feMergeNode in="shadowMatrixInner1"></feMergeNode>
                <feMergeNode in="shadowMatrixInner2"></feMergeNode>
            </feMerge>
        </filter>
        <linearGradient x1="50%" y1="0%" x2="50%" y2="100%" id="linearGradient-17">
            <stop stop-color="#1C2229" offset="0%"></stop>
            <stop stop-color="#1C2127" offset="100%"></stop>
        </linearGradient>
        <circle id="path-18" cx="38" cy="38" r="38"></circle>
        <filter x="-3.9%" y="-3.9%" width="107.9%" height="107.9%" filterUnits="objectBoundingBox" id="filter-19">
            <feGaussianBlur stdDeviation="0.5" in="SourceAlpha" result="shadowBlurInner1"></feGaussianBlur>
            <feOffset dx="0.5" dy="1" in="shadowBlurInner1" result="shadowOffsetInner1"></feOffset>
            <feComposite in="shadowOffsetInner1" in2="SourceAlpha" operator="arithmetic" k2="-1" k3="1" result="shadowInnerInner1"></feComposite>
            <feColorMatrix values="0 0 0 0 1   0 0 0 0 1   0 0 0 0 1  0 0 0 0.359894012 0" type="matrix" in="shadowInnerInner1"></feColorMatrix>
        </filter>
        <linearGradient x1="37.4099562%" y1="4.74950481%" x2="66.3669217%" y2="97.8732832%" id="linearGradient-20">
            <stop stop-color="#EFF2F6" offset="0%"></stop>
            <stop stop-color="#E6EBF1" offset="100%"></stop>
        </linearGradient>
        <rect id="path-21" x="102" y="23" width="14" height="6" rx="3"></rect>
        <filter x="-14.3%" y="-16.7%" width="128.6%" height="166.7%" filterUnits="objectBoundingBox" id="filter-22">
            <feOffset dx="0" dy="1" in="SourceAlpha" result="shadowOffsetOuter1"></feOffset>
            <feGaussianBlur stdDeviation="0.5" in="shadowOffsetOuter1" result="shadowBlurOuter1"></feGaussianBlur>
            <feColorMatrix values="0 0 0 0 1   0 0 0 0 1   0 0 0 0 1  0 0 0 0.107708698 0" type="matrix" in="shadowBlurOuter1"></feColorMatrix>
        </filter>
    </defs>
    <g id="Apple-TV" stroke="none" stroke-width="1" fill="none" fill-rule="evenodd">
        <rect fill="#000000" x="0" y="0" width="1120" height="945"></rect>
        <g id="Apple-TV-Box" transform="translate(140.000000, 263.000000)">
            <path d="M164.088653,0 L405.911347,0 C462.968547,0 483.658866,5.94083911 504.518125,17.096493 C525.377384,28.252147 541.747853,44.6226157 552.903507,65.481875 C564.059161,86.3411342 570,107.031453 570,164.088653 L570,405.911347 C570,462.968547 564.059161,483.658866 552.903507,504.518125 C541.747853,525.377384 525.377384,541.747853 504.518125,552.903507 C483.658866,564.059161 462.968547,570 405.911347,570 L164.088653,570 C107.031453,570 86.3411342,564.059161 65.481875,552.903507 C44.6226157,541.747853 28.252147,525.377384 17.096493,504.518125 C5.94083911,483.658866 0,462.968547 0,405.911347 L0,164.088653 C0,107.031453 5.94083911,86.3411342 17.096493,65.481875 C28.252147,44.6226157 44.6226157,28.252147 65.481875,17.096493 C86.3411342,5.94083911 107.031453,5.68434189e-14 164.088653,0 Z" id="base" fill="url(#linearGradient-1)"></path>
            <g id="apple">
                <use fill="black" fill-opacity="1" filter="url(#filter-3)" xlink:href="#path-2"></use>
                <use fill="#000308" fill-rule="evenodd" xlink:href="#path-2"></use>
            </g>
            <g id="tv" fill-rule="nonzero">
                <use fill="black" fill-opacity="1" filter="url(#filter-5)" xlink:href="#path-4"></use>
                <use fill="#000308" xlink:href="#path-4"></use>
            </g>
        </g>
        <g id="Apple-TV-Remote" transform="translate(762.000000, 113.000000)">
            <g id="Base" transform="translate(-0.000000, 0.000000)">
                <path d="M218,720 L-2.84217094e-13,720 L-2.84217094e-13,365.841589 C-2.84217094e-13,347.119696 1.94933783,340.330685 5.60978678,333.48624 C9.27023572,326.641796 14.6417958,321.270236 21.4862402,317.609787 C28.3306847,313.949338 35.1196957,312 53.8415892,312 L164.158411,312 C182.880304,312 189.669315,313.949338 196.51376,317.609787 C203.358204,321.270236 208.729764,326.641796 212.390213,333.48624 C216.050662,340.330685 218,347.119696 218,365.841589 L218,720 Z" id="Bottom-Base" fill="url(#linearGradient-6)" transform="translate(109.000000, 516.000000) scale(1, -1) translate(-109.000000, -516.000000) "></path>
                <path d="M218,314 L-8.52651283e-14,314 L-8.52651283e-14,53.8415892 C-8.52651283e-14,35.1196957 1.94933783,28.3306847 5.60978678,21.4862402 C9.27023572,14.6417958 14.6417958,9.27023572 21.4862402,5.60978678 C28.3306847,1.94933783 35.1196957,0 53.8415892,0 L164.158411,0 C182.880304,0 189.669315,1.94933783 196.51376,5.60978678 C203.358204,9.27023572 208.729764,14.6417958 212.390213,21.4862402 C216.050662,28.3306847 218,35.1196957 218,53.8415892 L218,314 Z" id="Top-Base" fill="url(#linearGradient-7)"></path>
            </g>
            <g id="Volume-Button" transform="translate(124.000000, 322.000000)">
                <g id="Button-Base">
                    <use fill="url(#linearGradient-8)" fill-rule="evenodd" xlink:href="#path-9"></use>
                    <use fill="black" fill-opacity="1" filter="url(#filter-10)" xlink:href="#path-9"></use>
                    <path stroke="#000000" stroke-width="2" d="M34.5,-1 C53.7708518,-1 70,16.5288791 70,36.5 L70,133.5 C70,153.471121 53.7708518,171 34.5,171 C15.2291482,171 -1,153.471121 -1,133.5 L-1,36.5 C-1,16.5288791 15.2291482,-1 34.5,-1 Z"></path>
                </g>
                <rect id="Decrease-Icon" fill="#F1F4F0" x="25" y="129" width="18" height="2.5" rx="1.25"></rect>
                <path d="M33.25,36 L33.25,29 C33.25,28.3096441 33.8096441,27.75 34.5,27.75 C35.1903559,27.75 35.75,28.3096441 35.75,29 L35.75,36 L42.75,36 C43.4403559,36 44,36.5596441 44,37.25 C44,37.9403559 43.4403559,38.5 42.75,38.5 L35.75,38.5 L35.75,45.5 C35.75,46.1903559 35.1903559,46.75 34.5,46.75 C33.8096441,46.75 33.25,46.1903559 33.25,45.5 L33.25,38.5 L26.25,38.5 C25.5596441,38.5 25,37.9403559 25,37.25 C25,36.5596441 25.5596441,36 26.25,36 L33.25,36 Z" id="Increase-Icon" fill="#F1F4F0"></path>
            </g>
            <g id="Play-Button" transform="translate(24.000000, 416.000000)">
                <g id="Button-Base">
                    <use fill="url(#linearGradient-11)" fill-rule="evenodd" xlink:href="#path-12"></use>
                    <use fill="black" fill-opacity="1" filter="url(#filter-13)" xlink:href="#path-12"></use>
                    <circle stroke="#000000" stroke-width="2" cx="38" cy="38" r="39"></circle>
                </g>
                <path d="M43.25,31 C43.9403559,31 44.5,31.5596441 44.5,32.25 L44.5,42.75 C44.5,43.4403559 43.9403559,44 43.25,44 C42.5596441,44 42,43.4403559 42,42.75 L42,32.25 C42,31.5596441 42.5596441,31 43.25,31 Z M49.25,31 C49.9403559,31 50.5,31.5596441 50.5,32.25 L50.5,42.75 C50.5,43.4403559 49.9403559,44 49.25,44 C48.5596441,44 48,43.4403559 48,42.75 L48,32.25 C48,31.5596441 48.5596441,31 49.25,31 Z M28.3525512,31.4807328 L36.9125281,36.0430169 C37.8872918,36.5625451 38.2563331,37.773908 37.736805,38.7486717 C37.5499897,39.0991834 37.2630398,39.3861333 36.9125281,39.5729486 L28.3525512,44.1352326 C27.5727402,44.5508552 26.6036499,44.2556221 26.1880273,43.4758111 C26.0645733,43.2441807 26,42.9857357 26,42.7232599 L26,32.8927055 C26,32.0090499 26.7163444,31.2927055 27.6,31.2927055 C27.8624758,31.2927055 28.1209208,31.3572788 28.3525512,31.4807328 Z" id="Play-Icon" fill="#F1F4F7"></path>
            </g>
            <g id="Siri-Button" transform="translate(24.000000, 322.000000)">
                <g id="Button-Base">
                    <use fill="url(#linearGradient-14)" fill-rule="evenodd" xlink:href="#path-15"></use>
                    <use fill="black" fill-opacity="1" filter="url(#filter-16)" xlink:href="#path-15"></use>
                    <circle stroke="#000000" stroke-width="2" cx="38" cy="38" r="39"></circle>
                </g>
                <path d="M39,46.9376402 L39,50 L43,50 C43.5522847,50 44,50.4477153 44,51 C44,51.5522847 43.5522847,52 43,52 L33,52 C32.4477153,52 32,51.5522847 32,51 C32,50.4477153 32.4477153,50 33,50 L37,50 L37,46.9376402 C33.0521871,46.4416285 30,43.0473269 30,38.937557 L30,34 C30,33.4477153 30.4477153,33 31,33 C31.5522847,33 32,33.4477153 32,34 L32,38.937557 C32,42.28773 34.6882893,45 38,45 C41.3117107,45 44,42.28773 44,38.937557 L44,34 C44,33.4477153 44.4477153,33 45,33 C45.5522847,33 46,33.4477153 46,34 L46,38.937557 C46,43.0473269 42.9478129,46.4416285 39,46.9376402 L39,46.9376402 Z M38,24 C40.209139,24 42,25.790861 42,28 L42,39 C42,41.209139 40.209139,43 38,43 C35.790861,43 34,41.209139 34,39 L34,28 C34,25.790861 35.790861,24 38,24 Z" id="Siri-Icon" fill="#F1F4F7"></path>
            </g>
            <g id="Sleep-Button" transform="translate(121.000000, 229.000000)">
                <g id="Button-Base">
                    <use fill="url(#linearGradient-17)" fill-rule="evenodd" xlink:href="#path-18"></use>
                    <use fill="black" fill-opacity="1" filter="url(#filter-19)" xlink:href="#path-18"></use>
                    <circle stroke="#000000" stroke-width="2" cx="38" cy="38" r="39"></circle>
                </g>
                <path d="M48.7180574,31 L26.2819426,31 C26.1009456,31 26.0367501,31.0022103 26.0074035,31.0074035 C26.0022103,31.0367501 26,31.1009456 26,31.2819426 L26,42.7180574 C26,42.8990544 26.0022103,42.9632499 26.0074035,42.9925965 C26.0367501,42.9977897 26.1009456,43 26.2819426,43 L48.7180574,43 C48.8990544,43 48.9632499,42.9977897 48.9925965,42.9925965 C48.9977897,42.9632499 49,42.8990544 49,42.7180574 L49,31.2819426 C49,31.1009456 48.9977897,31.0367501 48.9925965,31.0074035 C48.9632499,31.0022103 48.8990544,31 48.7180574,31 Z M26.2819426,29 L48.7180574,29 C49.2754304,29 49.610143,29.064636 49.9600217,29.2517532 C50.2972531,29.4321065 50.5678935,29.7027469 50.7482468,30.0399783 C50.935364,30.389857 51,30.7245696 51,31.2819426 L51,42.7180574 C51,43.2754304 50.935364,43.610143 50.7482468,43.9600217 C50.5678935,44.2972531 50.2972531,44.5678935 49.9600217,44.7482468 C49.610143,44.935364 49.2754304,45 48.7180574,45 L26.2819426,45 C25.7245696,45 25.389857,44.935364 25.0399783,44.7482468 C24.7027469,44.5678935 24.4321065,44.2972531 24.2517532,43.9600217 C24.064636,43.610143 24,43.2754304 24,42.7180574 L24,31.2819426 C24,30.7245696 24.064636,30.389857 24.2517532,30.0399783 C24.4321065,29.7027469 24.7027469,29.4321065 25.0399783,29.2517532 C25.389857,29.064636 25.7245696,29 26.2819426,29 Z M33,47 L42,47 C42.5522847,47 43,47.4477153 43,48 C43,48.5522847 42.5522847,49 42,49 L33,49 C32.4477153,49 32,48.5522847 32,48 C32,47.4477153 32.4477153,47 33,47 Z" id="Sleep-Icon" fill="#F1F4F7" fill-rule="nonzero"></path>
            </g>
            <path d="M62,301.6 C81.1090523,301.6 96.6,286.109052 96.6,267 C96.6,247.890948 81.1090523,232.4 62,232.4 C42.8909477,232.4 27.4,247.890948 27.4,267 C27.4,286.109052 42.8909477,301.6 62,301.6 Z M62,305 C41.0131795,305 24,287.98682 24,267 C24,246.01318 41.0131795,229 62,229 C82.9868205,229 100,246.01318 100,267 C100,287.98682 82.9868205,305 62,305 Z" id="Button-Base" fill="url(#linearGradient-20)" fill-rule="nonzero"></path>
            <path d="M51.5007324,273 L49.7429199,273 L49.7429199,265.565918 L49.6403809,265.565918 L46.7180176,272.589844 L45.3703613,272.589844 L42.447998,265.565918 L42.345459,265.565918 L42.345459,273 L40.5876465,273 L40.5876465,262.431152 L42.7995605,262.431152 L45.9782715,270.128906 L46.1101074,270.128906 L49.2888184,262.431152 L51.5007324,262.431152 L51.5007324,273 Z M60.9489746,271.366699 L60.9489746,273 L54.1081543,273 L54.1081543,262.431152 L60.9489746,262.431152 L60.9489746,264.064453 L55.9978027,264.064453 L55.9978027,266.869629 L60.6779785,266.869629 L60.6779785,268.407715 L55.9978027,268.407715 L55.9978027,271.366699 L60.9489746,271.366699 Z M65.1164551,273 L63.2927246,273 L63.2927246,262.431152 L64.9333496,262.431152 L70.1188965,269.616211 L70.2434082,269.616211 L70.2434082,262.431152 L72.0598145,262.431152 L72.0598145,273 L70.4265137,273 L65.2409668,265.807617 L65.1164551,265.807617 L65.1164551,273 Z M76.5861816,262.431152 L76.5861816,269.184082 C76.5861816,270.612305 77.4797363,271.571777 79.0471191,271.571777 C80.614502,271.571777 81.5007324,270.612305 81.5007324,269.184082 L81.5007324,262.431152 L83.3903809,262.431152 L83.3903809,269.359863 C83.3903809,271.666992 81.720459,273.263672 79.0471191,273.263672 C76.3737793,273.263672 74.7038574,271.666992 74.7038574,269.359863 L74.7038574,262.431152 L76.5861816,262.431152 Z" id="Menu-Type" fill="#E6EBF1"></path>
            <g id="Microphone" fill-rule="nonzero">
                <use fill="black" fill-opacity="1" filter="url(#filter-22)" xlink:href="#path-21"></use>
                <use fill="#000308" xlink:href="#path-21"></use>
            </g>
        </g>
    </g>
</svg>